<?xml version="1.0" standalone="no"?>
<!DOCTYPE svg PUBLIC "-//W3C//DTD SVG 20010904//EN"
 "http://www.w3.org/TR/2001/REC-SVG-20010904/DTD/svg10.dtd">
<svg version="1.0" xmlns="http://www.w3.org/2000/svg"
 width="197.000000pt" height="141.000000pt" viewBox="0 0 197.000000 141.000000"
 preserveAspectRatio="xMidYMid meet">
<metadata>
Created by potrace 1.16, written by Peter Selinger 2001-2019
</metadata>
<g transform="translate(0.000000,141.000000) scale(0.100000,-0.100000)"
fill="#ffffff" fill-opacity="0.5" stroke="none">
<path d="M0 705 l0 -705 985 0 985 0 0 705 0 705 -985 0 -985 0 0 -705z m78
616 c20 -16 186 -138 367 -271 182 -133 334 -246 340 -251 5 -5 -67 -9 -177
-9 l-187 0 -188 267 c-103 146 -192 272 -196 280 -13 21 1 15 41 -16z m1845
17 c-4 -7 -92 -133 -196 -280 l-188 -268 -187 0 c-157 0 -184 2 -172 14 8 7
168 125 355 261 187 137 349 256 360 267 22 21 40 24 28 6z m-883 -438 l53
-170 184 -2 183 -3 -145 -103 c-79 -56 -149 -102 -155 -102 -5 0 -47 27 -92
60 -45 33 -88 58 -94 56 -7 -3 -46 -30 -88 -60 -41 -31 -80 -56 -86 -56 -6 0
-76 46 -155 103 l-143 102 183 3 182 2 32 103 c68 217 75 237 81 237 3 0 30
-76 60 -170z m-422 -339 c56 -41 99 -78 95 -82 -9 -7 -405 -140 -409 -136 -4
4 201 297 207 294 3 -1 51 -35 107 -76z m938 -69 c56 -81 101 -148 100 -149
-4 -5 -406 132 -408 139 -3 6 189 156 202 157 3 1 51 -66 106 -147z m-471 15
c95 -70 113 -90 130 -147 l8 -24 -34 25 c-19 14 -73 54 -121 88 l-88 63 -87
-63 c-49 -34 -103 -74 -122 -88 l-34 -25 8 24 c17 58 35 78 130 147 55 40 102
73 105 73 3 0 50 -33 105 -73z m30 -154 c118 -86 136 -103 149 -140 8 -24 12
-43 9 -43 -3 0 -70 48 -149 106 l-144 106 -144 -106 c-79 -58 -146 -106 -149
-106 -3 0 1 19 9 43 13 37 31 54 147 139 73 54 134 97 135 98 2 0 64 -44 137
-97z"/>
</g>
</svg>
